<mxfile host="Electron" modified="2024-12-16T13:13:39.954Z" agent="Mozilla/5.0 (Windows NT 10.0; Win64; x64) AppleWebKit/537.36 (KHTML, like Gecko) draw.io/24.2.5 Chrome/120.0.6099.109 Electron/28.1.0 Safari/537.36" etag="6vyEs4H5q7PYodbmrj4R" version="24.2.5" type="device">
  <diagram id="C5RBs43oDa-KdzZeNtuy" name="Page-1">
    <mxGraphModel dx="1098" dy="828" grid="1" gridSize="10" guides="1" tooltips="1" connect="1" arrows="1" fold="1" page="1" pageScale="1" pageWidth="827" pageHeight="1169" math="0" shadow="0">
      <root>
        <mxCell id="WIyWlLk6GJQsqaUBKTNV-0" />
        <mxCell id="WIyWlLk6GJQsqaUBKTNV-1" parent="WIyWlLk6GJQsqaUBKTNV-0" />
        <mxCell id="XVDnaxL3i0utUpeGJUlY-47" style="edgeStyle=orthogonalEdgeStyle;rounded=0;orthogonalLoop=1;jettySize=auto;html=1;exitX=0.5;exitY=1;exitDx=0;exitDy=0;entryX=0.5;entryY=0;entryDx=0;entryDy=0;" edge="1" parent="WIyWlLk6GJQsqaUBKTNV-1" source="WIyWlLk6GJQsqaUBKTNV-3" target="XVDnaxL3i0utUpeGJUlY-0">
          <mxGeometry relative="1" as="geometry" />
        </mxCell>
        <mxCell id="WIyWlLk6GJQsqaUBKTNV-3" value="result=0" style="rounded=1;whiteSpace=wrap;html=1;fontSize=12;glass=0;strokeWidth=1;shadow=0;" parent="WIyWlLk6GJQsqaUBKTNV-1" vertex="1">
          <mxGeometry x="125" y="60" width="120" height="40" as="geometry" />
        </mxCell>
        <mxCell id="XVDnaxL3i0utUpeGJUlY-48" style="edgeStyle=orthogonalEdgeStyle;rounded=0;orthogonalLoop=1;jettySize=auto;html=1;exitX=0.5;exitY=1;exitDx=0;exitDy=0;entryX=0.5;entryY=0;entryDx=0;entryDy=0;" edge="1" parent="WIyWlLk6GJQsqaUBKTNV-1" source="XVDnaxL3i0utUpeGJUlY-0" target="XVDnaxL3i0utUpeGJUlY-2">
          <mxGeometry relative="1" as="geometry" />
        </mxCell>
        <mxCell id="XVDnaxL3i0utUpeGJUlY-0" value="a=a0" style="rounded=1;whiteSpace=wrap;html=1;fontSize=12;glass=0;strokeWidth=1;shadow=0;" vertex="1" parent="WIyWlLk6GJQsqaUBKTNV-1">
          <mxGeometry x="125" y="120" width="120" height="40" as="geometry" />
        </mxCell>
        <mxCell id="XVDnaxL3i0utUpeGJUlY-30" style="edgeStyle=orthogonalEdgeStyle;rounded=0;orthogonalLoop=1;jettySize=auto;html=1;exitX=0.5;exitY=1;exitDx=0;exitDy=0;entryX=0.5;entryY=0;entryDx=0;entryDy=0;" edge="1" parent="WIyWlLk6GJQsqaUBKTNV-1" source="XVDnaxL3i0utUpeGJUlY-2" target="XVDnaxL3i0utUpeGJUlY-5">
          <mxGeometry relative="1" as="geometry" />
        </mxCell>
        <mxCell id="XVDnaxL3i0utUpeGJUlY-2" value="&lt;div style=&quot;text-align: start;&quot;&gt;&lt;span style=&quot;background-color: initial;&quot;&gt;loss=vloss(&lt;/span&gt;&lt;span style=&quot;background-color: rgb(255, 255, 255); color: rgb(40, 40, 40);&quot;&gt;&lt;font style=&quot;font-size: 12px;&quot; face=&quot;Helvetica&quot;&gt;Δva,a,Rр)&lt;/font&gt;&lt;/span&gt;&lt;/div&gt;" style="rounded=1;whiteSpace=wrap;html=1;fontSize=12;glass=0;strokeWidth=1;shadow=0;" vertex="1" parent="WIyWlLk6GJQsqaUBKTNV-1">
          <mxGeometry x="125" y="180" width="120" height="40" as="geometry" />
        </mxCell>
        <mxCell id="XVDnaxL3i0utUpeGJUlY-4" style="edgeStyle=orthogonalEdgeStyle;rounded=0;orthogonalLoop=1;jettySize=auto;html=1;exitX=0.5;exitY=1;exitDx=0;exitDy=0;entryX=0.5;entryY=0;entryDx=0;entryDy=0;" edge="1" parent="WIyWlLk6GJQsqaUBKTNV-1" source="XVDnaxL3i0utUpeGJUlY-3" target="WIyWlLk6GJQsqaUBKTNV-3">
          <mxGeometry relative="1" as="geometry" />
        </mxCell>
        <mxCell id="XVDnaxL3i0utUpeGJUlY-3" value="flight=1" style="rounded=1;whiteSpace=wrap;html=1;fontSize=12;glass=0;strokeWidth=1;shadow=0;" vertex="1" parent="WIyWlLk6GJQsqaUBKTNV-1">
          <mxGeometry x="125" y="10" width="120" height="40" as="geometry" />
        </mxCell>
        <mxCell id="XVDnaxL3i0utUpeGJUlY-31" style="edgeStyle=orthogonalEdgeStyle;rounded=0;orthogonalLoop=1;jettySize=auto;html=1;exitX=0.5;exitY=1;exitDx=0;exitDy=0;entryX=0.5;entryY=0;entryDx=0;entryDy=0;" edge="1" parent="WIyWlLk6GJQsqaUBKTNV-1" source="XVDnaxL3i0utUpeGJUlY-5" target="XVDnaxL3i0utUpeGJUlY-6">
          <mxGeometry relative="1" as="geometry" />
        </mxCell>
        <mxCell id="XVDnaxL3i0utUpeGJUlY-5" value="result=result+loss" style="rounded=1;whiteSpace=wrap;html=1;fontSize=12;glass=0;strokeWidth=1;shadow=0;" vertex="1" parent="WIyWlLk6GJQsqaUBKTNV-1">
          <mxGeometry x="125" y="240" width="120" height="40" as="geometry" />
        </mxCell>
        <mxCell id="XVDnaxL3i0utUpeGJUlY-32" style="edgeStyle=orthogonalEdgeStyle;rounded=0;orthogonalLoop=1;jettySize=auto;html=1;exitX=0.5;exitY=1;exitDx=0;exitDy=0;entryX=0.5;entryY=0;entryDx=0;entryDy=0;" edge="1" parent="WIyWlLk6GJQsqaUBKTNV-1" source="XVDnaxL3i0utUpeGJUlY-6" target="XVDnaxL3i0utUpeGJUlY-8">
          <mxGeometry relative="1" as="geometry" />
        </mxCell>
        <mxCell id="XVDnaxL3i0utUpeGJUlY-6" value="&lt;span style=&quot;color: rgb(40, 40, 40); text-align: start; background-color: rgb(255, 255, 255);&quot;&gt;Δv_corr=&lt;/span&gt;&lt;span style=&quot;color: rgb(40, 40, 40); text-align: start; background-color: rgb(255, 255, 255);&quot;&gt;Δv_corr_sec*t_switch&lt;/span&gt;" style="rounded=1;whiteSpace=wrap;html=1;fontSize=12;glass=0;strokeWidth=1;shadow=0;" vertex="1" parent="WIyWlLk6GJQsqaUBKTNV-1">
          <mxGeometry x="90" y="300" width="190" height="40" as="geometry" />
        </mxCell>
        <mxCell id="XVDnaxL3i0utUpeGJUlY-33" style="edgeStyle=orthogonalEdgeStyle;rounded=0;orthogonalLoop=1;jettySize=auto;html=1;exitX=0.5;exitY=1;exitDx=0;exitDy=0;entryX=0.5;entryY=0;entryDx=0;entryDy=0;" edge="1" parent="WIyWlLk6GJQsqaUBKTNV-1" source="XVDnaxL3i0utUpeGJUlY-8" target="XVDnaxL3i0utUpeGJUlY-9">
          <mxGeometry relative="1" as="geometry" />
        </mxCell>
        <mxCell id="XVDnaxL3i0utUpeGJUlY-8" value="a=a*exp((&lt;span style=&quot;color: rgb(40, 40, 40); text-align: start; background-color: rgb(255, 255, 255);&quot;&gt;Δv_corr+&lt;/span&gt;&lt;span style=&quot;color: rgb(40, 40, 40); text-align: start; background-color: rgb(255, 255, 255);&quot;&gt;Δva+loss&lt;/span&gt;)/Isp)" style="rounded=1;whiteSpace=wrap;html=1;fontSize=12;glass=0;strokeWidth=1;shadow=0;" vertex="1" parent="WIyWlLk6GJQsqaUBKTNV-1">
          <mxGeometry x="90" y="360" width="190" height="40" as="geometry" />
        </mxCell>
        <mxCell id="XVDnaxL3i0utUpeGJUlY-34" style="edgeStyle=orthogonalEdgeStyle;rounded=0;orthogonalLoop=1;jettySize=auto;html=1;exitX=0.5;exitY=1;exitDx=0;exitDy=0;entryX=0.5;entryY=0;entryDx=0;entryDy=0;" edge="1" parent="WIyWlLk6GJQsqaUBKTNV-1" source="XVDnaxL3i0utUpeGJUlY-9" target="XVDnaxL3i0utUpeGJUlY-10">
          <mxGeometry relative="1" as="geometry" />
        </mxCell>
        <mxCell id="XVDnaxL3i0utUpeGJUlY-9" value="&lt;div style=&quot;text-align: start;&quot;&gt;&lt;span style=&quot;background-color: initial;&quot;&gt;loss=vloss(&lt;/span&gt;&lt;span style=&quot;background-color: rgb(255, 255, 255); color: rgb(40, 40, 40);&quot;&gt;&lt;font style=&quot;font-size: 12px;&quot; face=&quot;Helvetica&quot;&gt;Δvp,a,R_рhase)&lt;/font&gt;&lt;/span&gt;&lt;/div&gt;" style="rounded=1;whiteSpace=wrap;html=1;fontSize=12;glass=0;strokeWidth=1;shadow=0;" vertex="1" parent="WIyWlLk6GJQsqaUBKTNV-1">
          <mxGeometry x="92.5" y="410" width="185" height="40" as="geometry" />
        </mxCell>
        <mxCell id="XVDnaxL3i0utUpeGJUlY-35" style="edgeStyle=orthogonalEdgeStyle;rounded=0;orthogonalLoop=1;jettySize=auto;html=1;exitX=0.5;exitY=1;exitDx=0;exitDy=0;entryX=0.5;entryY=0;entryDx=0;entryDy=0;" edge="1" parent="WIyWlLk6GJQsqaUBKTNV-1" source="XVDnaxL3i0utUpeGJUlY-10" target="XVDnaxL3i0utUpeGJUlY-11">
          <mxGeometry relative="1" as="geometry" />
        </mxCell>
        <mxCell id="XVDnaxL3i0utUpeGJUlY-10" value="result=result+loss" style="rounded=1;whiteSpace=wrap;html=1;fontSize=12;glass=0;strokeWidth=1;shadow=0;" vertex="1" parent="WIyWlLk6GJQsqaUBKTNV-1">
          <mxGeometry x="125" y="470" width="120" height="40" as="geometry" />
        </mxCell>
        <mxCell id="XVDnaxL3i0utUpeGJUlY-36" style="edgeStyle=orthogonalEdgeStyle;rounded=0;orthogonalLoop=1;jettySize=auto;html=1;exitX=0.5;exitY=1;exitDx=0;exitDy=0;entryX=0.5;entryY=0;entryDx=0;entryDy=0;" edge="1" parent="WIyWlLk6GJQsqaUBKTNV-1" source="XVDnaxL3i0utUpeGJUlY-11" target="XVDnaxL3i0utUpeGJUlY-12">
          <mxGeometry relative="1" as="geometry" />
        </mxCell>
        <mxCell id="XVDnaxL3i0utUpeGJUlY-11" value="&lt;span style=&quot;color: rgb(40, 40, 40); text-align: start; background-color: rgb(255, 255, 255);&quot;&gt;Δv_corr=&lt;/span&gt;&lt;span style=&quot;color: rgb(40, 40, 40); text-align: start; background-color: rgb(255, 255, 255);&quot;&gt;Δv_corr_sec*t_phase&lt;/span&gt;" style="rounded=1;whiteSpace=wrap;html=1;fontSize=12;glass=0;strokeWidth=1;shadow=0;" vertex="1" parent="WIyWlLk6GJQsqaUBKTNV-1">
          <mxGeometry x="90" y="530" width="190" height="40" as="geometry" />
        </mxCell>
        <mxCell id="XVDnaxL3i0utUpeGJUlY-37" style="edgeStyle=orthogonalEdgeStyle;rounded=0;orthogonalLoop=1;jettySize=auto;html=1;exitX=0.5;exitY=1;exitDx=0;exitDy=0;entryX=0.5;entryY=0;entryDx=0;entryDy=0;" edge="1" parent="WIyWlLk6GJQsqaUBKTNV-1" source="XVDnaxL3i0utUpeGJUlY-12" target="XVDnaxL3i0utUpeGJUlY-13">
          <mxGeometry relative="1" as="geometry" />
        </mxCell>
        <mxCell id="XVDnaxL3i0utUpeGJUlY-12" value="a=a*exp((&lt;span style=&quot;color: rgb(40, 40, 40); text-align: start; background-color: rgb(255, 255, 255);&quot;&gt;Δv_corr+&lt;/span&gt;&lt;span style=&quot;color: rgb(40, 40, 40); text-align: start; background-color: rgb(255, 255, 255);&quot;&gt;Δvp+loss&lt;/span&gt;)/Isp)" style="rounded=1;whiteSpace=wrap;html=1;fontSize=12;glass=0;strokeWidth=1;shadow=0;" vertex="1" parent="WIyWlLk6GJQsqaUBKTNV-1">
          <mxGeometry x="90" y="585" width="190" height="40" as="geometry" />
        </mxCell>
        <mxCell id="XVDnaxL3i0utUpeGJUlY-38" style="edgeStyle=orthogonalEdgeStyle;rounded=0;orthogonalLoop=1;jettySize=auto;html=1;exitX=0.5;exitY=1;exitDx=0;exitDy=0;entryX=0.5;entryY=0;entryDx=0;entryDy=0;" edge="1" parent="WIyWlLk6GJQsqaUBKTNV-1" source="XVDnaxL3i0utUpeGJUlY-13" target="XVDnaxL3i0utUpeGJUlY-14">
          <mxGeometry relative="1" as="geometry" />
        </mxCell>
        <mxCell id="XVDnaxL3i0utUpeGJUlY-13" value="&lt;div style=&quot;text-align: start;&quot;&gt;&lt;span style=&quot;background-color: initial;&quot;&gt;loss=vloss(&lt;/span&gt;&lt;span style=&quot;background-color: rgb(255, 255, 255); color: rgb(40, 40, 40);&quot;&gt;&lt;font style=&quot;font-size: 12px;&quot; face=&quot;Helvetica&quot;&gt;Δvp,a,R_рhase)&lt;/font&gt;&lt;/span&gt;&lt;/div&gt;" style="rounded=1;whiteSpace=wrap;html=1;fontSize=12;glass=0;strokeWidth=1;shadow=0;" vertex="1" parent="WIyWlLk6GJQsqaUBKTNV-1">
          <mxGeometry x="92.5" y="650" width="185" height="40" as="geometry" />
        </mxCell>
        <mxCell id="XVDnaxL3i0utUpeGJUlY-39" style="edgeStyle=orthogonalEdgeStyle;rounded=0;orthogonalLoop=1;jettySize=auto;html=1;exitX=0.5;exitY=1;exitDx=0;exitDy=0;entryX=0.5;entryY=0;entryDx=0;entryDy=0;" edge="1" parent="WIyWlLk6GJQsqaUBKTNV-1" source="XVDnaxL3i0utUpeGJUlY-14" target="XVDnaxL3i0utUpeGJUlY-15">
          <mxGeometry relative="1" as="geometry" />
        </mxCell>
        <mxCell id="XVDnaxL3i0utUpeGJUlY-14" value="result=result+loss" style="rounded=1;whiteSpace=wrap;html=1;fontSize=12;glass=0;strokeWidth=1;shadow=0;" vertex="1" parent="WIyWlLk6GJQsqaUBKTNV-1">
          <mxGeometry x="125" y="710" width="120" height="40" as="geometry" />
        </mxCell>
        <mxCell id="XVDnaxL3i0utUpeGJUlY-40" style="edgeStyle=orthogonalEdgeStyle;rounded=0;orthogonalLoop=1;jettySize=auto;html=1;exitX=0.5;exitY=1;exitDx=0;exitDy=0;entryX=0.5;entryY=0;entryDx=0;entryDy=0;" edge="1" parent="WIyWlLk6GJQsqaUBKTNV-1" source="XVDnaxL3i0utUpeGJUlY-15" target="XVDnaxL3i0utUpeGJUlY-16">
          <mxGeometry relative="1" as="geometry" />
        </mxCell>
        <mxCell id="XVDnaxL3i0utUpeGJUlY-15" value="&lt;span style=&quot;color: rgb(40, 40, 40); text-align: start; background-color: rgb(255, 255, 255);&quot;&gt;Δv_corr=&lt;/span&gt;&lt;span style=&quot;color: rgb(40, 40, 40); text-align: start; background-color: rgb(255, 255, 255);&quot;&gt;Δv_corr_sec*t_switch&lt;/span&gt;" style="rounded=1;whiteSpace=wrap;html=1;fontSize=12;glass=0;strokeWidth=1;shadow=0;" vertex="1" parent="WIyWlLk6GJQsqaUBKTNV-1">
          <mxGeometry x="90" y="770" width="190" height="40" as="geometry" />
        </mxCell>
        <mxCell id="XVDnaxL3i0utUpeGJUlY-41" style="edgeStyle=orthogonalEdgeStyle;rounded=0;orthogonalLoop=1;jettySize=auto;html=1;exitX=0.5;exitY=1;exitDx=0;exitDy=0;entryX=0.5;entryY=0;entryDx=0;entryDy=0;" edge="1" parent="WIyWlLk6GJQsqaUBKTNV-1" source="XVDnaxL3i0utUpeGJUlY-16" target="XVDnaxL3i0utUpeGJUlY-17">
          <mxGeometry relative="1" as="geometry" />
        </mxCell>
        <mxCell id="XVDnaxL3i0utUpeGJUlY-16" value="a=a*exp((&lt;span style=&quot;color: rgb(40, 40, 40); text-align: start; background-color: rgb(255, 255, 255);&quot;&gt;Δv_corr+&lt;/span&gt;&lt;span style=&quot;color: rgb(40, 40, 40); text-align: start; background-color: rgb(255, 255, 255);&quot;&gt;Δvp+loss&lt;/span&gt;)/Isp)" style="rounded=1;whiteSpace=wrap;html=1;fontSize=12;glass=0;strokeWidth=1;shadow=0;" vertex="1" parent="WIyWlLk6GJQsqaUBKTNV-1">
          <mxGeometry x="90" y="840" width="190" height="40" as="geometry" />
        </mxCell>
        <mxCell id="XVDnaxL3i0utUpeGJUlY-42" style="edgeStyle=orthogonalEdgeStyle;rounded=0;orthogonalLoop=1;jettySize=auto;html=1;exitX=0.5;exitY=1;exitDx=0;exitDy=0;entryX=0.5;entryY=0;entryDx=0;entryDy=0;" edge="1" parent="WIyWlLk6GJQsqaUBKTNV-1" source="XVDnaxL3i0utUpeGJUlY-17" target="XVDnaxL3i0utUpeGJUlY-18">
          <mxGeometry relative="1" as="geometry" />
        </mxCell>
        <mxCell id="XVDnaxL3i0utUpeGJUlY-17" value="&lt;div style=&quot;text-align: start;&quot;&gt;&lt;span style=&quot;background-color: initial;&quot;&gt;loss=vloss(&lt;/span&gt;&lt;span style=&quot;background-color: rgb(255, 255, 255); color: rgb(40, 40, 40);&quot;&gt;&lt;font style=&quot;font-size: 12px;&quot; face=&quot;Helvetica&quot;&gt;Δva,a,Rр)&lt;/font&gt;&lt;/span&gt;&lt;/div&gt;" style="rounded=1;whiteSpace=wrap;html=1;fontSize=12;glass=0;strokeWidth=1;shadow=0;" vertex="1" parent="WIyWlLk6GJQsqaUBKTNV-1">
          <mxGeometry x="125" y="900" width="120" height="40" as="geometry" />
        </mxCell>
        <mxCell id="XVDnaxL3i0utUpeGJUlY-43" style="edgeStyle=orthogonalEdgeStyle;rounded=0;orthogonalLoop=1;jettySize=auto;html=1;exitX=0.5;exitY=1;exitDx=0;exitDy=0;entryX=0.5;entryY=0;entryDx=0;entryDy=0;" edge="1" parent="WIyWlLk6GJQsqaUBKTNV-1" source="XVDnaxL3i0utUpeGJUlY-18" target="XVDnaxL3i0utUpeGJUlY-19">
          <mxGeometry relative="1" as="geometry" />
        </mxCell>
        <mxCell id="XVDnaxL3i0utUpeGJUlY-18" value="result=result+loss" style="rounded=1;whiteSpace=wrap;html=1;fontSize=12;glass=0;strokeWidth=1;shadow=0;" vertex="1" parent="WIyWlLk6GJQsqaUBKTNV-1">
          <mxGeometry x="125" y="950" width="120" height="40" as="geometry" />
        </mxCell>
        <mxCell id="XVDnaxL3i0utUpeGJUlY-44" style="edgeStyle=orthogonalEdgeStyle;rounded=0;orthogonalLoop=1;jettySize=auto;html=1;exitX=0.5;exitY=1;exitDx=0;exitDy=0;entryX=0.5;entryY=0;entryDx=0;entryDy=0;" edge="1" parent="WIyWlLk6GJQsqaUBKTNV-1" source="XVDnaxL3i0utUpeGJUlY-19" target="XVDnaxL3i0utUpeGJUlY-20">
          <mxGeometry relative="1" as="geometry" />
        </mxCell>
        <mxCell id="XVDnaxL3i0utUpeGJUlY-19" value="&lt;span style=&quot;color: rgb(40, 40, 40); text-align: start; background-color: rgb(255, 255, 255);&quot;&gt;Δv_corr=&lt;/span&gt;&lt;span style=&quot;color: rgb(40, 40, 40); text-align: start; background-color: rgb(255, 255, 255);&quot;&gt;Δv_corr_day*3*30.44&lt;/span&gt;" style="rounded=1;whiteSpace=wrap;html=1;fontSize=12;glass=0;strokeWidth=1;shadow=0;" vertex="1" parent="WIyWlLk6GJQsqaUBKTNV-1">
          <mxGeometry x="90" y="1010" width="190" height="40" as="geometry" />
        </mxCell>
        <mxCell id="XVDnaxL3i0utUpeGJUlY-29" style="edgeStyle=orthogonalEdgeStyle;rounded=0;orthogonalLoop=1;jettySize=auto;html=1;exitX=1;exitY=0.5;exitDx=0;exitDy=0;entryX=0;entryY=0.5;entryDx=0;entryDy=0;" edge="1" parent="WIyWlLk6GJQsqaUBKTNV-1" source="XVDnaxL3i0utUpeGJUlY-20" target="XVDnaxL3i0utUpeGJUlY-22">
          <mxGeometry relative="1" as="geometry" />
        </mxCell>
        <mxCell id="XVDnaxL3i0utUpeGJUlY-20" value="a=a*exp((&lt;span style=&quot;color: rgb(40, 40, 40); text-align: start; background-color: rgb(255, 255, 255);&quot;&gt;Δv_corr+&lt;/span&gt;&lt;span style=&quot;color: rgb(40, 40, 40); text-align: start; background-color: rgb(255, 255, 255);&quot;&gt;Δva+loss&lt;/span&gt;)/Isp)" style="rounded=1;whiteSpace=wrap;html=1;fontSize=12;glass=0;strokeWidth=1;shadow=0;" vertex="1" parent="WIyWlLk6GJQsqaUBKTNV-1">
          <mxGeometry x="90" y="1070" width="190" height="40" as="geometry" />
        </mxCell>
        <mxCell id="XVDnaxL3i0utUpeGJUlY-49" style="edgeStyle=orthogonalEdgeStyle;rounded=0;orthogonalLoop=1;jettySize=auto;html=1;exitX=0.5;exitY=0;exitDx=0;exitDy=0;entryX=0.5;entryY=1;entryDx=0;entryDy=0;" edge="1" parent="WIyWlLk6GJQsqaUBKTNV-1" source="XVDnaxL3i0utUpeGJUlY-22" target="XVDnaxL3i0utUpeGJUlY-24">
          <mxGeometry relative="1" as="geometry" />
        </mxCell>
        <mxCell id="XVDnaxL3i0utUpeGJUlY-51" value="Нет" style="edgeLabel;html=1;align=center;verticalAlign=middle;resizable=0;points=[];" vertex="1" connectable="0" parent="XVDnaxL3i0utUpeGJUlY-49">
          <mxGeometry x="0.1364" relative="1" as="geometry">
            <mxPoint as="offset" />
          </mxGeometry>
        </mxCell>
        <mxCell id="XVDnaxL3i0utUpeGJUlY-50" style="edgeStyle=orthogonalEdgeStyle;rounded=0;orthogonalLoop=1;jettySize=auto;html=1;exitX=1;exitY=0.5;exitDx=0;exitDy=0;entryX=0;entryY=0.5;entryDx=0;entryDy=0;" edge="1" parent="WIyWlLk6GJQsqaUBKTNV-1" source="XVDnaxL3i0utUpeGJUlY-22" target="XVDnaxL3i0utUpeGJUlY-28">
          <mxGeometry relative="1" as="geometry" />
        </mxCell>
        <mxCell id="XVDnaxL3i0utUpeGJUlY-52" value="Да" style="edgeLabel;html=1;align=center;verticalAlign=middle;resizable=0;points=[];" vertex="1" connectable="0" parent="XVDnaxL3i0utUpeGJUlY-50">
          <mxGeometry x="-0.04" relative="1" as="geometry">
            <mxPoint as="offset" />
          </mxGeometry>
        </mxCell>
        <mxCell id="XVDnaxL3i0utUpeGJUlY-22" value="flight=28" style="rhombus;whiteSpace=wrap;html=1;" vertex="1" parent="WIyWlLk6GJQsqaUBKTNV-1">
          <mxGeometry x="380" y="1050" width="80" height="80" as="geometry" />
        </mxCell>
        <mxCell id="XVDnaxL3i0utUpeGJUlY-25" style="edgeStyle=orthogonalEdgeStyle;rounded=0;orthogonalLoop=1;jettySize=auto;html=1;entryX=1;entryY=0.5;entryDx=0;entryDy=0;exitX=0.442;exitY=0;exitDx=0;exitDy=0;exitPerimeter=0;" edge="1" parent="WIyWlLk6GJQsqaUBKTNV-1" source="XVDnaxL3i0utUpeGJUlY-24" target="XVDnaxL3i0utUpeGJUlY-2">
          <mxGeometry relative="1" as="geometry">
            <Array as="points">
              <mxPoint x="420" y="790" />
              <mxPoint x="420" y="200" />
            </Array>
          </mxGeometry>
        </mxCell>
        <mxCell id="XVDnaxL3i0utUpeGJUlY-24" value="flight=flight+1" style="rounded=1;whiteSpace=wrap;html=1;fontSize=12;glass=0;strokeWidth=1;shadow=0;" vertex="1" parent="WIyWlLk6GJQsqaUBKTNV-1">
          <mxGeometry x="360" y="790" width="120" height="40" as="geometry" />
        </mxCell>
        <mxCell id="XVDnaxL3i0utUpeGJUlY-28" value="v_losses_sum=result" style="rounded=1;whiteSpace=wrap;html=1;fontSize=12;glass=0;strokeWidth=1;shadow=0;" vertex="1" parent="WIyWlLk6GJQsqaUBKTNV-1">
          <mxGeometry x="560" y="1070" width="190" height="40" as="geometry" />
        </mxCell>
      </root>
    </mxGraphModel>
  </diagram>
</mxfile>
